# xmcd CD database file
#
# Track frame offsets:
#	150
#	18678
#	68197
#	104497
#	149028
#	168965
#	195988
#	227414
#	270082
#	300193
#	340703
#
# Disc length: 4785 seconds
#
# Revision: 0
# Processed by: cddbd v1.5.1PL2 Copyright (c) Steve Scherf et al.
# Submitted via: CDex 1.51
#
DISCID=8a12af0b
DTITLE=Steve Talaga - Basement Alchemy
DYEAR=1900
DGENRE=Jazz
TTITLE0=Whirly Bird (for Charlie Parker)
TTITLE1=Jade Pearl
TTITLE2=Fire Drug
TTITLE3=The Hand From Hell
TTITLE4=The Duke of Chi'in
TTITLE5=Rage
TTITLE6=Miles Ago (for Miles Davis)
TTITLE7=Sedona Sunset
TTITLE8=In the Shadow of the Titan (for John Coltrane)
TTITLE9=S.O.S.D.T.
TTITLE10=More Rage
EXTD=
EXTT0=
EXTT1=
EXTT2=
EXTT3=
EXTT4=
EXTT5=
EXTT6=
EXTT7=
EXTT8=
EXTT9=
EXTT10=
PLAYORDER=
